Machete (2010) 1080P X264 MKV AC3 NLSubs

PLOT

After being betrayed by the organization who hired him, 
an ex-Federale launches a brutal rampage of revenge against his former boss. 

MM:    http://www.moviemeter.nl/film/59376

IMDB:    http://www.imdb.com/title/tt0985694/

INFO

HD Source....: 1080P BluRay 
FRAME RATE...: 25.000Fps 
VIDEO CODEC..: X264
AUDIO CODEC..: AC3
RESOLUTION...: 1904x1056
RUNTIME......: 105 MINS 
GENERE.......: Action | Adventure | Comedy | Crime   
LANGUAGE.....: English
SUBTITLES....: Dutch 

Thanks To Bradje

Enjoy

Extra Info

      Format : Matroska
      File size : 7.28 GiB
      Duration : 1h 40mn
      Overall bit rate : 10.4 Mbps
      Movie name : Machete (2010) 1080P.X264.NL.SUBBED.Bradje
      Encoded date : UTC 2010-10-07 06:36:37
      Writing application : mkvmerge v3.3.0 ('Language') built on Mar 24 2010 14:59:24
      Writing library : libebml v0.8.0 + libmatroska v0.9.0
   Video #1
      ID : 1
      Format : AVC
      Format/Info : Advanced Video Codec
      Format profile : High@L4.0
      Format settings, CABAC : Yes
      Format settings, ReFrames : 4 frames
      Muxing mode : Container profile=Unknown@4.0
      Codec ID : V_MPEG4/ISO/AVC
      Duration : 1h 40mn
      Bit rate : 9 716 Kbps
      Nominal bit rate : 9 526 Kbps
      Width : 1 904 pixels
      Height : 1 056 pixels
      Display aspect ratio : 16:9
      Frame rate mode : Variable
      Frame rate : 25.000 fps
      Resolution : 24 bits
      Colorimetry : 4:2:0
      Scan type : Progressive
      Bits/(Pixel*Frame) : 0.193
      Stream size : 6.82 GiB (94%)
      Title : x264
      Writing library : x264 core 105
      Encoding settings : cabac=1 / ref=2 / deblock=1:0:0 / analyse=0x3:0x113 / me=hex / subme=6 / psy=1 / 
psy_rd=2,00:2,00 / mixed_ref=0 / me_range=16 / chroma_me=1 / trellis=2 / 8x8dct=1 / cqm=0 / deadzone=21,11 / 
fast_pskip=1 / chroma_qp_offset=-4 / threads=3 / sliced_threads=0 / nr=0 / decimate=1 / interlaced=0 / 
constrained_intra=0 / bframes=2 / b_pyramid=2 / b_adapt=2 / b_bias=0 / direct=3 / weightb=0 / open_gop=0 / 
weightp=2 / keyint=240 / keyint_min=24 / scenecut=40 / intra_refresh=0 / rc_lookahead=40 / rc=2pass / mbtree=1 /
 bitrate=9526 / ratetol=1,0 / qcomp=0,60 / qpmin=10 / qpmax=51 / qpstep=4 / cplxblur=20,0 / qblur=0,5 / 
ip_ratio=1,40 / aq=1:2,00
      Language : English
      colour_primaries : BT.709-5, BT.1361, IEC 61966-2-4, SMPTE RP177
      transfer_characteristics : BT.709-5, BT.1361
      matrix_coefficients : BT.709-5, BT.1361, IEC 61966-2-4 709, SMPTE RP177
   Audio #2
      ID : 2
      Format : AC-3
      Format/Info : Audio Coding 3
      Codec ID : A_AC3
      Duration : 1h 40mn
      Bit rate mode : Constant
      Bit rate : 448 Kbps
      Channel(s) : 6 channels
      Channel positions : Front: L C R, Surround: L R, LFE
      Sampling rate : 48.0 KHz
      Video delay : 1s 316ms
      Stream size : 322 MiB (4%)
      Title : AC3
      Language : English
   Text #3
      ID : 3
      Format : UTF-8
      Codec ID : S_TEXT/UTF8
      Codec ID/Info : UTF-8 Plain Text
      Title : Subtitles
      Language : Dutch